<svg width="29" height="28" viewBox="0 0 29 28" fill="none" xmlns="http://www.w3.org/2000/svg">
<path d="M27.092 12.1399V23.0774H2.41699V12.1399H8.54199V18.0024C8.54199 18.4897 8.73558 18.9571 9.08018 19.3017C9.42478 19.6463 9.89216 19.8399 10.3795 19.8399H10.467C10.7156 19.8517 10.9639 19.813 11.1971 19.726C11.4302 19.6389 11.6432 19.5055 11.8232 19.3336C12.0032 19.1618 12.1465 18.9552 12.2442 18.7264C12.342 18.4976 12.3923 18.2513 12.392 18.0024V12.1399H27.092Z" fill="#F5F5F5" stroke="#4B4B4B" stroke-width="2" stroke-linecap="round" stroke-linejoin="round"/>
<path d="M27.092 12.1398L14.492 6.18982C12.7407 5.29993 10.7389 5.03171 8.81511 5.42919C6.89131 5.82667 5.15973 6.86624 3.90449 8.37732C3.02478 9.44353 2.5042 10.7603 2.41699 12.1398" stroke="#4B4B4B" stroke-width="2" stroke-linecap="round" stroke-linejoin="round"/>
<path d="M2.41699 17.6523H4.95449" stroke="#4B4B4B" stroke-width="2" stroke-linecap="round" stroke-linejoin="round"/>
<path d="M15.8047 17.6523H27.0922" stroke="#4B4B4B" stroke-width="2" stroke-linecap="round" stroke-linejoin="round"/>
</svg>
