<svg width="40" height="41" viewBox="0 0 40 41" fill="none" xmlns="http://www.w3.org/2000/svg">
<rect y="0.582275" width="40" height="40" rx="20" fill="#303030"/>
<g clip-path="url(#clip0_489_6531)">
<path d="M20 12.5823C22.1736 12.5823 22.4448 12.5903 23.2976 12.6303C24.1496 12.6703 24.7296 12.8039 25.24 13.0023C25.768 13.2055 26.2128 13.4807 26.6576 13.9247C27.0644 14.3246 27.3792 14.8083 27.58 15.3423C27.7776 15.8519 27.912 16.4327 27.952 17.2847C27.9896 18.1375 28 18.4087 28 20.5823C28 22.7559 27.992 23.0271 27.952 23.8799C27.912 24.7319 27.7776 25.3119 27.58 25.8223C27.3797 26.3565 27.0649 26.8404 26.6576 27.2399C26.2576 27.6465 25.7738 27.9613 25.24 28.1623C24.7304 28.3599 24.1496 28.4943 23.2976 28.5343C22.4448 28.5719 22.1736 28.5823 20 28.5823C17.8264 28.5823 17.5552 28.5743 16.7024 28.5343C15.8504 28.4943 15.2704 28.3599 14.76 28.1623C14.2259 27.9619 13.742 27.647 13.3424 27.2399C12.9355 26.84 12.6207 26.3563 12.42 25.8223C12.2216 25.3127 12.088 24.7319 12.048 23.8799C12.0104 23.0271 12 22.7559 12 20.5823C12 18.4087 12.008 18.1375 12.048 17.2847C12.088 16.4319 12.2216 15.8527 12.42 15.3423C12.6202 14.808 12.935 14.3241 13.3424 13.9247C13.7421 13.5177 14.2259 13.2029 14.76 13.0023C15.2704 12.8039 15.8496 12.6703 16.7024 12.6303C17.5552 12.5927 17.8264 12.5823 20 12.5823ZM20 16.5823C18.9391 16.5823 17.9217 17.0037 17.1716 17.7538C16.4214 18.504 16 19.5214 16 20.5823C16 21.6431 16.4214 22.6606 17.1716 23.4107C17.9217 24.1608 18.9391 24.5823 20 24.5823C21.0609 24.5823 22.0783 24.1608 22.8284 23.4107C23.5786 22.6606 24 21.6431 24 20.5823C24 19.5214 23.5786 18.504 22.8284 17.7538C22.0783 17.0037 21.0609 16.5823 20 16.5823V16.5823ZM25.2 16.3823C25.2 16.1171 25.0946 15.8627 24.9071 15.6752C24.7196 15.4876 24.4652 15.3823 24.2 15.3823C23.9348 15.3823 23.6804 15.4876 23.4929 15.6752C23.3054 15.8627 23.2 16.1171 23.2 16.3823C23.2 16.6475 23.3054 16.9018 23.4929 17.0894C23.6804 17.2769 23.9348 17.3823 24.2 17.3823C24.4652 17.3823 24.7196 17.2769 24.9071 17.0894C25.0946 16.9018 25.2 16.6475 25.2 16.3823ZM20 18.1823C20.6365 18.1823 21.247 18.4351 21.6971 18.8852C22.1471 19.3353 22.4 19.9458 22.4 20.5823C22.4 21.2188 22.1471 21.8292 21.6971 22.2793C21.247 22.7294 20.6365 22.9823 20 22.9823C19.3635 22.9823 18.753 22.7294 18.3029 22.2793C17.8529 21.8292 17.6 21.2188 17.6 20.5823C17.6 19.9458 17.8529 19.3353 18.3029 18.8852C18.753 18.4351 19.3635 18.1823 20 18.1823V18.1823Z" fill="#FCCE0B"/>
</g>
<defs>
<clipPath id="clip0_489_6531">
<rect width="16" height="16" fill="white" transform="translate(12 12.5823)"/>
</clipPath>
</defs>
</svg>
