<svg width="29" height="29" viewBox="0 0 29 29" fill="none" xmlns="http://www.w3.org/2000/svg">
<path d="M1.375 27.8252H27.0125" stroke="#4B4B4B" stroke-width="2" stroke-linecap="round" stroke-linejoin="round"/>
<path d="M2.8623 24.675C3.33304 21.9935 4.72904 19.5619 6.80738 17.8033C8.88572 16.0447 11.5149 15.0705 14.2373 15.05C16.9542 15.0564 19.5806 16.0276 21.6479 17.7905C23.7153 19.5534 25.0893 21.9933 25.5248 24.675" fill="#F5F5F5"/>
<path d="M2.8623 24.675C3.33304 21.9935 4.72904 19.5619 6.80738 17.8033C8.88572 16.0447 11.5149 15.0705 14.2373 15.05C16.9542 15.0564 19.5806 16.0276 21.6479 17.7905C23.7153 19.5534 25.0893 21.9933 25.5248 24.675" stroke="#4B4B4B" stroke-width="2" stroke-linecap="round" stroke-linejoin="round"/>
<path d="M14.2374 14.9626C15.4939 14.9626 16.5124 13.9441 16.5124 12.6876C16.5124 11.4312 15.4939 10.4126 14.2374 10.4126C12.981 10.4126 11.9624 11.4312 11.9624 12.6876C11.9624 13.9441 12.981 14.9626 14.2374 14.9626Z" stroke="#4B4B4B" stroke-width="2" stroke-linecap="round" stroke-linejoin="round"/>
<path d="M7.5 5.6875V8.83751" stroke="#4B4B4B" stroke-width="2" stroke-linecap="round" stroke-linejoin="round"/>
<path d="M20.9751 5.6875V8.83751" stroke="#4B4B4B" stroke-width="2" stroke-linecap="round" stroke-linejoin="round"/>
</svg>
