<svg width="40" height="41" viewBox="0 0 40 41" fill="none" xmlns="http://www.w3.org/2000/svg">
<rect y="0.582275" width="40" height="40" rx="20" fill="#303030"/>
<g clip-path="url(#clip0_489_6527)">
<path d="M20 12.5823C15.5816 12.5823 12 16.1857 12 20.631C12 24.6481 14.9256 27.9778 18.7504 28.5823V22.957H16.7184V20.631H18.7504V18.8578C18.7504 16.8408 19.944 15.7269 21.772 15.7269C22.6472 15.7269 23.5624 15.8839 23.5624 15.8839V17.8638H22.5544C21.56 17.8638 21.2504 18.4844 21.2504 19.121V20.631H23.4688L23.1144 22.957H21.2504V28.5823C25.0744 27.9786 28 24.6473 28 20.631C28 16.1857 24.4184 12.5823 20 12.5823Z" fill="#FCCE0B"/>
</g>
<defs>
<clipPath id="clip0_489_6527">
<rect width="16" height="16" fill="white" transform="translate(12 12.5823)"/>
</clipPath>
</defs>
</svg>
