<svg width="29" height="28" viewBox="0 0 29 28" fill="none" xmlns="http://www.w3.org/2000/svg">
<path d="M24.6334 14.7C24.6334 17.3223 23.5917 19.8372 21.7374 21.6915C19.8832 23.5457 17.3682 24.5875 14.7459 24.5875C12.1236 24.5875 9.60865 23.5457 7.75438 21.6915C5.90011 19.8372 4.8584 17.3223 4.8584 14.7" fill="#F5F5F5"/>
<path d="M24.6334 14.7C24.6334 17.3223 23.5917 19.8372 21.7374 21.6915C19.8832 23.5457 17.3682 24.5875 14.7459 24.5875C12.1236 24.5875 9.60865 23.5457 7.75438 21.6915C5.90011 19.8372 4.8584 17.3223 4.8584 14.7" stroke="#4B4B4B" stroke-width="2" stroke-linecap="round" stroke-linejoin="round"/>
<path d="M2.5835 11.9875H26.821" stroke="#4B4B4B" stroke-width="2" stroke-linecap="round" stroke-linejoin="round"/>
<path d="M11.3335 15.75H18.1585" stroke="#4B4B4B" stroke-width="2" stroke-linecap="round" stroke-linejoin="round"/>
<path d="M7.83369 21.875L5.03369 26.25" stroke="#4B4B4B" stroke-width="2" stroke-linecap="round" stroke-linejoin="round"/>
<path d="M21.5713 21.875L24.3713 26.25" stroke="#4B4B4B" stroke-width="2" stroke-linecap="round" stroke-linejoin="round"/>
<path d="M8.53369 8.31254V3.67505" stroke="#4B4B4B" stroke-width="2" stroke-linecap="round" stroke-linejoin="round"/>
<path d="M20.0835 8.31254V3.67505" stroke="#4B4B4B" stroke-width="2" stroke-linecap="round" stroke-linejoin="round"/>
<path d="M14.3086 5.6875V1.75" stroke="#4B4B4B" stroke-width="2" stroke-linecap="round" stroke-linejoin="round"/>
</svg>
